<?xml version="1.0" encoding="utf-8"?>
<!-- Generator: Adobe Illustrator 26.0.3, SVG Export Plug-In . SVG Version: 6.00 Build 0)  -->
<svg version="1.1" id="Layer_1" xmlns="http://www.w3.org/2000/svg" xmlns:xlink="http://www.w3.org/1999/xlink" x="0px" y="0px"
	 viewBox="0 0 500 500" style="enable-background:new 0 0 500 500;" xml:space="preserve">
<style type="text/css">
	.st0{fill:#DFA67D;}
	.st1{fill:#263061;}
</style>
<g>
	<g>
		<path class="st0" d="M442.7,272.1C442.7,272.1,442.7,272.1,442.7,272.1c-1.5-14.1-7.2-27.5-16.4-38.3c-0.7-6.2-4-11.7-7.5-16.8
			c-3.1-4.5-6.4-8.8-10-12.8c0-1.1-0.3-2.3-1-3.2c-7.9-10.6-16.4-20.7-25.5-30.3c0-1.1-0.4-2.3-1.1-3.5c-4.2-6.6-9.3-12.3-15.1-17.2
			c-0.3-0.9-0.9-1.8-1.7-2.4c-8.3-6.4-16.5-12.8-26-17.5c-5.7-2.8-11.5-5.1-17.5-7.3c-0.6-0.9-1.5-1.7-2.8-2.2
			c-8.5-3.9-17-7.5-26.4-8.3c-9.7-0.8-19.7,0.1-29.4,0.3c-2.3,0.1-4.1,1-5.2,2.4c-7.1,0.3-14.3,1.8-21.3,3.6
			c-0.3-0.5-0.9-0.9-1.7-0.8c-1,0.1-2,0.2-3.1,0.3c-0.5,0-0.9-0.1-1.3-0.1c-4.1-0.4-8.3-0.2-12.4,0.3c-8.4,1-16.7,3.2-24.8,5.4
			c-1.2,0.3-1.6,1.3-1.5,2.2c-6.2,2-12.2,4.4-17.9,7.4c-5.2,2.6-10.1,5.7-14.8,9.1c-0.8,0.6-1.2,1.5-0.9,2.5
			c-1.4,0.9-2.7,1.8-4.1,2.8c-0.5,0-1,0.2-1.4,0.6c-0.9,0.9-1.9,1.7-2.8,2.6c-1.1,0.8-2.1,1.7-3.2,2.6c-4.8,4-9.2,8.4-13.3,13.1
			c-0.6,0.7-0.6,1.5-0.4,2.2c-1.7,2.3-3.1,4.7-3.9,7.4c-0.1,0.2-0.1,0.4-0.1,0.5c-8.4,12.3-15.4,25.4-21,39.1c-1.9,0.6-2.4,3.4-3,5
			c-1.6,4.4-3,8.9-4.2,13.5c-0.8,3.2-1.6,6.5-2.2,9.8c-0.7,2.8-1.4,5.6-2,8.4c-0.1,0.6,0,1.1,0.3,1.6c-0.4,2.9-0.8,5.8-1.2,8.6
			c-0.7,5.4-1.2,10.7-1.8,16.1c-0.1,0.5,0.2,1,0.6,1.4c0,0.8,0,1.5,0,2.3c0,1.1,0.7,1.7,1.5,1.9c-0.1,6.3-0.1,12.6,0.2,18.9
			c0,0.2,0,0.3,0.1,0.4c-0.2,7.1,0.4,14.3,1.7,21.3c-1.5-0.5-3.4,0.6-2.8,2.4c1.7,5,3.3,10.1,5.1,15.2c-0.7,0.7-0.8,1.7-0.4,2.6
			c1.4,2.8,2.8,5.7,4.1,8.5c0.2,0.4,0.6,0.7,1,0.9c-0.1,1.3,0.2,2.7,1.1,4.2c8.7,14,20.7,25.2,33.1,35.9c-0.2,1.8,0.4,3.7,2.2,5.3
			c15.6,14.3,33.8,25,53.8,32c0.2,0.1,0.4,0.1,0.6,0.2c5.5,2.7,11.1,5.6,16.9,7.4c1.1,1.5,2.9,2.5,5.4,2.4c1.3,0,2.6-0.1,4-0.1
			c9.2,4.4,18.5,8.2,28.1,11.6c0.7,0.3,1.3,0.1,1.8-0.3c3.3,1.1,7,0.7,10.4,0.6c5-0.2,9.9-0.5,14.9-1c9.9-0.9,19.7-2.3,29.4-4.3
			c1.2-0.2,1.6-1.1,1.5-2c12.8-3.8,25.6-8,37.6-14c4.2-2.1,8.3-4.5,12.3-7.1c0.9-0.6,1.1-1.5,0.9-2.3c4.5-2.7,8.9-5.5,13.1-8.5
			c3.9-2.7,7.7-5.5,11.5-8.5c0.5-0.4,0.7-1.1,0.6-1.8c2.5-2.2,4.9-4.4,7.2-6.8c0.6-0.6,0.7-1.3,0.5-1.9c6.5-6.8,12.5-14.2,18-21.9
			c1.6-2.2,3-4.4,4.5-6.7c0.1-0.1,0.1-0.1,0.2-0.2c0.1-0.2,0.2-0.3,0.3-0.5c0.7-1.2,1.5-2.3,2.2-3.5c0.2-0.3,0.2-0.5,0.3-0.8
			c2.3-4,4.6-8.1,6.8-12.3c0.4-0.5,0.7-1,1.1-1.5c0.2-0.3,0.3-0.7,0.3-1.1c3.7-7.3,7.3-14.7,10.5-22.2c0.2-0.5,0.3-1,0.2-1.5
			c0.3-0.8,0.7-1.6,1-2.4c0.3-0.6,0-1.3-0.4-1.9c-0.4-2-3.6-2.6-4.1-0.2c-0.8,4-2.7,7.6-4.5,11.2c-1.7,2.9-3.5,5.8-5.5,8.5
			c1.6-6.4,3-12.8,4.1-19.3c1-0.8,1.8-2,2.1-3.7c1.3-6,2.1-12.1,2.3-18.2c0.6,0.5,1.4,0.6,2.1,0.4c0.3,5,0.2,9.9,0.1,14.9
			c-0.1,2,3.1,2,3.2,0c0.2-5.3,0.2-10.7-0.1-16c-0.3-5.3-1.1-10.7-1.9-15.9c0-0.2-0.1-0.4-0.2-0.6c-0.1-1.9-0.3-3.8-0.5-5.6
			c-0.2-7.9-1.2-15.9-2.9-23.6c1.8,3.4,3.5,6.9,4.9,10.5c2.8,7,4.3,14.4,5.1,21.9c0.1,1.1,0.9,2.1,2.1,2.1c1,0,2.2-1,2.1-2.1
			C444,279.4,443.5,275.8,442.7,272.1z M243.7,131.6c0.2,0,0.3-0.1,0.5-0.1c0.5,0.2,1.1,0.4,1.7,0.5c4.8,0.9,9.7,1.7,14.5,2.3
			c0.9,0.4,2,0.7,3.2,0.7c1,0,2.1,0,3.1,0c2.4,0.2,4.8,0.4,7.2,0.6c8.9,1.2,17.7,3.7,26.5,6c7.9,3.4,15.7,6.9,23.6,10.3
			c4.2,1.8,8.4,3.7,12.6,5.5c0.6,0.3,1.2,0.5,1.8,0.8c2.3,2.3,4.5,4.8,6.6,7.3c1.9,2.3,4.2,2.7,6.3,2.1c4.6,4.5,9,9.2,13.3,14
			c8.3,11.1,16.2,22.4,23.9,33.9c0.1,1,0.4,2,1,2.9c5.3,8.1,10.9,16,16.7,23.8c0.1,1.1,0.5,2.2,1.3,3.4c2.7,3.7,4.7,7.7,6.3,11.8
			c-0.2,0.7-0.3,1.4-0.2,2.2c2.4,20.7,1.3,41.4-3.5,61.7c-0.1,0.5-0.2,0.9-0.2,1.3c-0.8,2-1.6,3.9-2.3,5.9c-0.2,0.4-0.4,0.8-0.6,1.3
			c-0.6,1.8-1.2,3.5-1.9,5.2c-1.2,2.2-2.5,4.4-3.9,6.4c-0.5,0.4-1,0.9-1.4,1.5c-14.1,19.6-30.4,37.4-48.4,53.3
			c-6.1,3.9-12.4,7.4-18.8,10.7c-2.4,1.1-4.8,2.2-7.3,3.2c-1,0.4-1.8,0.9-2.6,1.6c-13.7,6.1-28,10.8-42.8,14.1
			c-11.1,1.7-22.4,1.5-33.5,0.1c-0.3-0.7-0.9-1.3-1.9-1.2c-2.5,0-4.9,0-7.4-0.2c-3.1-0.6-6.1-1.2-9.1-1.9c-4.9-1.2-9.7-2.6-14.4-4.1
			c-0.6-0.2-1.2-0.1-1.6,0.1c-3-1.3-6-2.7-8.9-4.3c-1.3-0.8-2.6-1.6-3.9-2.4c0.1-0.1,0.2-0.2,0.2-0.3c0.5-0.9,0.3-2.4-0.8-2.9
			c-1.8-0.9-3.6-1.8-5.4-2.7c-0.1-0.1-0.2-0.2-0.3-0.2c-5.6-3.4-11.2-6.8-16.9-10.3c0.1-0.6,0-1.2-0.6-1.7
			c-5.6-5.7-11.9-10.6-18.7-14.7c-0.8-1.2-1.7-2.4-2.5-3.6c0-0.1,0-0.2-0.1-0.3c-0.8-2.5-1.9-4.9-3.2-7.2c-0.8-1.6-1.6-3.2-2.5-4.8
			c-0.3-0.5-0.9-0.9-1.5-1c-1.1-1.3-2.2-2.6-3.4-3.8c-4.5-4.4-9.8-8-15-11.6c-2.8-1.9-5.7-3.8-8.4-5.8c-0.3-0.2-0.7-0.3-1.1-0.3
			c-3.2-8.2-5.6-16.7-6.9-25.5c-0.2-1.1-1.6-1.7-2.6-1.5c-0.1,0-0.2,0.1-0.3,0.1c-0.4-2.1-0.8-4.3-1.3-6.4c0,0,0,0,0,0
			c0.3-0.5,0.4-1.1,0.2-1.6c-0.1-0.5-0.4-0.8-0.8-1.1c-0.3-1.4-0.5-2.7-0.8-4.1c0.3-0.2,0.5-0.5,0.6-0.9c2.4-7,4.2-14.1,5.4-21.3
			c0.1-0.9-0.1-1.8-0.8-2.3c1.9-12.7,3.9-25.5,5.8-38.2c0.2-0.2,0.4-0.5,0.5-0.8c2.5-7.3,5.3-14.6,8.1-21.8c0.3-0.2,0.6-0.4,0.9-0.8
			c3.7-6.2,7.5-12.3,11.4-18.4c1.3-0.5,2.5-1.4,3.4-2.9c11.7-19.1,29.3-33.5,49.1-43.7c10.9-5.6,22.5-9.9,34.3-13.3
			C231.4,134.4,237.6,132.9,243.7,131.6z M165.7,145c-0.1-0.1-0.2-0.1-0.3-0.2c7.3-4.3,15.1-7.8,23.2-10.5c1.3-0.4,2.7-0.9,4.1-1.2
			c-2.4,1.1-4.8,2.2-7.1,3.4c-6.8,3.4-13.4,7.3-19.6,11.7c0.1-0.2,0.2-0.3,0.3-0.5C166.9,146.8,166.5,145.6,165.7,145z M300.9,435.1
			c-0.5,0.2-0.8,0.7-0.9,1.1c-0.5,0.2-0.9,0.5-1.4,0.7c-0.3-0.4-0.5-0.8-0.9-1.1c0.8-0.3,1.7-0.6,2.6-0.8c0.4-0.1,0.8-0.2,1.1-0.2
			C301.3,434.9,301.1,435,300.9,435.1z M404.1,214.9c0.1,0.1,0.1,0.2,0.2,0.3c-0.1-0.2-0.2-0.3-0.3-0.5
			C404,214.8,404.1,214.9,404.1,214.9z M113.1,336.6c-0.1-0.2-0.2-0.3-0.3-0.5c0,0,0.1-0.1,0.1-0.1C113,336.2,113,336.4,113.1,336.6
			z M123.5,210.9c-0.2,0.4-0.4,0.8-0.6,1.2c2-5.2,4.2-10.3,6.5-15.3C127.4,201.4,125.4,206.1,123.5,210.9z M102.3,300.3
			c0,0.1,0,0.1,0,0.2c0.1,0.3,0.1,0.5,0.2,0.8c-0.4-0.2-1-0.2-1.4-0.1c-0.4,0.1-0.8,0.4-1.1,0.7c0-0.3,0-0.5,0-0.8c0,0,0-0.1,0-0.1
			C100.9,301.2,101.8,301,102.3,300.3z M99.9,304.3c0.2,0.2,0.4,0.5,0.7,0.6c1,0.7,2,1.4,3.1,2.2c0.5,2.3,0.9,4.7,1.4,7
			c-0.5,0.1-1,0.4-1.2,0.9c-1-0.4-2.3,0-2.8,1.3c-0.2,0.5-0.3,1.1-0.4,1.6C100.1,313.4,99.9,308.9,99.9,304.3z M106.5,348.3
			c0-0.1-0.1-0.2-0.1-0.2c0,0,0,0,0,0C106.5,348.2,106.5,348.3,106.5,348.3z M208.8,126.1c1-0.2,2-0.3,3-0.4
			c-1.3,0.4-2.6,0.9-3.9,1.3c-0.1-0.3-0.3-0.5-0.5-0.7C207.9,126.3,208.4,126.2,208.8,126.1z M119.9,208.2c0-0.2,0.1-0.4,0.1-0.6
			c0.1-0.3,0.3-0.5,0.4-0.8C120.3,207.2,120.1,207.7,119.9,208.2z M342.7,426.9c-0.3,0-0.6,0.1-0.9,0.2c-4,2-8.3,3.5-12.7,4.5
			c1.7-1.3,3.4-2.7,5.1-4.1c0.3-0.2,0.5-0.5,0.6-0.8c0.3,0,0.6-0.1,1-0.2c0.1,0,0.2-0.1,0.3-0.1c0.6,0.2,1.2,0.1,1.8-0.1
			c2.3-1,4.6-2.1,6.9-3.1c0.2,0,0.4-0.1,0.6-0.2c0.1,0,0.1-0.1,0.2-0.1c6.8-3.2,13.5-6.7,20.1-10.3c-0.3,0.2-0.5,0.4-0.8,0.5
			c-0.7,0.4-1,1.1-1,1.7C356.9,419,349.9,423.1,342.7,426.9z M133.3,176.9c0.5-0.7,0.5-1.4,0.1-2c1.9-4.2,5.6-7.7,8.7-11
			c3.1-3.3,6.3-6.6,9.7-9.7c2.1-1.7,4.3-3.2,6.5-4.8c-5.1,4.7-10.1,9.5-14.9,14.5c-0.4,0.4-0.6,0.8-0.6,1.3c-0.1,0-0.1,0-0.2,0.1
			c-1.1,0.5-1.7,1.4-2.1,2.6c-0.1,0.2-0.1,0.3-0.1,0.5c-0.3,0.4-0.6,0.9-0.9,1.3c-7.5,9.6-14.3,19.8-20.2,30.5
			c-0.2,0.3-0.3,0.6-0.5,0.9c0,0,0,0,0,0c1.5-2.9,3-5.8,4.7-8.6C126.4,187.1,129.8,181.9,133.3,176.9z M256.6,449.6
			c-1.9,0-3.8-0.1-5.4-1.2c-0.9-0.6-1.8-0.4-2.4,0.2c-5.9-2.1-11.8-4.5-17.6-7c1.4,0,2.7,0,4.1,0c5.5,2.2,11.5,3.6,17.6,4.8
			c4,1.7,9.4,2.1,13.7,2.4c0.6,0.1,1.2,0.2,1.8,0.4c0,0,0.1,0,0.1,0c-1.8,0.1-3.5,0.2-5.3,0.3C261,449.5,258.8,449.6,256.6,449.6z
			 M419.7,347.6c-0.1,0.2-0.2,0.3-0.4,0.5c0-0.1,0.1-0.3,0.1-0.4C419.6,347.7,419.7,347.6,419.7,347.6z"/>
		<path class="st0" d="M97.3,210.4c-0.8-0.2-1.5,0-2,0.5c-0.1-0.1-0.2-0.1-0.2-0.2c-0.8-0.6-1.6-1.3-2.4-1.9
			c-0.1-0.3-0.4-0.7-0.8-0.9c-9.2-6.2-14.4-17.2-14.3-28.1c0-0.1,0.1-0.3,0.1-0.5c0.7-7.7,4.1-15.1,6.7-22.3
			c2.7-7.4,5.6-14.8,8.8-22.1c0.9-2,1.8-4.1,2.8-6.1c10.8-3,21.9-4.7,33-5c2.7-0.1,2.7-4.3,0-4.2c-4.2,0.1-8.4,0.5-12.6,1
			c-0.3-0.2-0.6-0.3-1-0.2c-5.5,0.6-10.9,1.4-16.4,2.3c0.2-0.5,0.2-1.1,0-1.5c0.7-1.4,1.4-2.8,2.1-4.2c0.7-0.1,1.3-0.2,2-0.4
			c0.3-0.1,0.6-0.2,0.8-0.4c5.3-0.2,10.6,0.3,15.8,1.7c2.6,0.7,3.7-3.4,1.1-4.1c-5.6-1.5-11.4-2.1-17.1-1.8c0.1-0.1,0.1-0.3,0.2-0.4
			c5.4-0.4,11-0.5,16.5-0.1c1.1,0.4,2.3,0.8,3.4,1.3c1.1,0.5,2.3,0.5,3.4,0.2c2.5,1.6,4.8,3.3,7.1,5.2c4.4,5.6,8.7,11.4,12.6,17.3
			c0.9,1.4,2.7,1.1,3.5,0.1c0.6,0.4,1.4,0.6,2.2,0.2c7.7-4,15.4-8.1,23.2-12.1c0.7,0.4,1.6,0.3,2.3-0.4c0.5-0.6,1.1-1.2,1.6-1.8
			c1.7-1.8-0.4-4.4-2.5-3.3c-0.3,0.2-0.7,0.4-1,0.5c0-0.4-0.1-0.7-0.3-1.1c-0.3-0.5-0.6-1.1-0.9-1.6c0-0.5-0.2-1.1-0.4-1.6
			c-0.3-0.6-0.8-1.3-1.2-1.9c-0.2-0.3-0.4-0.5-0.6-0.8c1.2-3.7-3.9-7.6-6.2-9.9c-1-1-2-2-3-2.9c1-0.5,1.6-1.7,0.9-2.9
			c-1.1-1.9-2.2-3.8-3.4-5.6c-2.4-6.9-6-13.3-10.7-18.8c-3.8-4.5-8.5-8.5-13.6-11.4c-3-1.7-6.2-2.9-9.7-3.2
			c-3.2-0.3-6.6,0.2-9.7,1.2c-3.4,1.1-6.7,2.7-9.9,4.5c-0.4-0.2-0.9-0.3-1.4-0.1c-3.1,1.1-6.2,2-9.4,2.4c-0.3-0.4-0.9-0.7-1.6-0.7
			c-9.6,0.3-18.7,3.7-26.3,9.6c-0.4,0.3-0.5,0.7-0.6,1.2c-4.4,2.8-8.5,6.1-12.2,9.8c-0.5-0.4-1.2-0.7-1.9-0.4
			c-11.7,4.8-21.6,13.5-28,24.4c-6.7,11.3-10.4,26.2-6.3,39c1,3.1,2.5,6.1,4.1,8.9c-5.3,13.8-8.1,28.9-6.2,43.7
			c1.5,11.5,5.8,22.5,13,31.6c0,0.1,0.1,0.1,0.1,0.2c0.1,0.2,0.3,0.4,0.5,0.5c0.7,0.9,1.4,1.7,2.2,2.5c4.7,5.1,10.4,9.4,16.7,12.2
			c1,0.5,2.3,0.3,2.9-0.8c0.5-0.9,0.3-2.4-0.8-2.9c-7.2-3.2-13.3-8.3-18.1-14.4c-9.6-16-9.6-35.2-4.6-52.8c0,0,0,0,0,0
			c0.1,0.6,0.1,1.2,0.2,1.8c0,0.2,0,0.4,0,0.6c0.1,0.7,0.3,1.5,0.4,2.2c0.1,0.4,0.1,0.9,0.2,1.3c0,0.1,0.1,0.2,0.1,0.3
			c2,10.2,5.4,20.1,10.2,29.4c2.6,5.1,5.6,10.3,9.4,14.7c3.6,4.2,8,7.2,13.1,9.3c3.9,1.6,7.9,2.5,12,3.2c0,0.2,0,0.3,0.1,0.5
			c0.2,0.5,0.5,1,1,1.3c0.5,0.2,1.1,0.4,1.6,0.2c0.6-0.2,1.2-0.4,1.8-0.5c0.5-0.1,1.1,0,1.6,0c0.2,0,0.3,0.1,0.5,0.1
			c0.5,0.1,1.1,0.1,1.6-0.2c0.4-0.3,0.9-0.8,1-1.3c0.1-0.5,0.1-1.1-0.2-1.6c-0.1-0.1-0.2-0.2-0.3-0.3c0.1-0.1,0.2-0.1,0.3-0.2
			c0,0.6,0.3,1.2,1,1.6c0.9,0.5,2.4,0.3,2.9-0.8c0.4-0.9,0.8-1.9,1.2-2.8c0.8-0.1,1.5-0.5,1.8-1.5c2.3-7.2,4.8-14.3,7.5-21.3
			C99.2,211.9,98.3,210.6,97.3,210.4z M150.7,132.2c-0.2,0.1-0.4,0.3-0.5,0.4c-0.2-0.3-0.3-0.5-0.5-0.8c0.4,0.1,0.8,0.2,1.3,0.2
			C150.8,132.1,150.7,132.1,150.7,132.2z M95.4,113.7c0.3-0.2,0.6-0.4,0.9-0.6c-0.1,0.1-0.3,0.3-0.4,0.5
			C95.8,113.6,95.6,113.7,95.4,113.7z M73.6,175.2c0,0,0.1,0,0.1,0c0,0.1,0,0.2,0,0.3C73.6,175.4,73.6,175.3,73.6,175.2z M78.3,135
			C78.4,135,78.4,135,78.3,135c3.1-1.3,6.2-2.5,9.3-3.6c-1.8,3.6-3.6,7.2-5.2,10.9c-2,4.3-3.9,8.7-5.7,13.2c-0.3,0.6,0,1.4,0.4,1.9
			c-0.8,1.7-1.5,3.5-2.3,5.3C74.7,153.3,75.3,143.9,78.3,135z M79.9,203.4c-0.1-0.1-0.2-0.3-0.3-0.4c0.1,0.1,0.3,0.3,0.4,0.4
			C80,203.4,79.9,203.4,79.9,203.4z M75.2,169.1c0-1-0.1-1.9-0.1-2.9c0.1,0.1,0.2,0.1,0.2,0.2c0.3,0.2,0.7,0.3,1.1,0.3
			c-0.2,0.6-0.4,1.2-0.6,1.9C75.6,168.7,75.3,168.9,75.2,169.1z M83,125.4c1.1-1.7,2.3-3.3,3.7-4.8c0.6-0.6,1.1-1.2,1.7-1.7
			c2.1-0.3,4.3-0.6,6.4-0.9c-1.1,1.9-2.2,3.9-3.2,5.8C88.8,124.3,85.9,124.9,83,125.4z M97.2,112.7c-0.1,0-0.2,0-0.2,0.1
			c0.4-0.3,0.8-0.5,1.3-0.8c0.1,0,0.1,0,0.2,0c-0.1,0.2-0.2,0.4-0.3,0.5C97.8,112.6,97.5,112.6,97.2,112.7z M45.9,97.6
			c-0.2-0.1-0.3-0.1-0.5-0.2c0.5-0.4,0.9-0.9,1.4-1.3c0,0,0,0,0.1-0.1C46.5,96.6,46.2,97.1,45.9,97.6z M37.7,106.5
			c1.1,0.2,2-0.5,2.4-1.5c0,0,0.3-0.6,0.1-0.2c0-0.1,0.1-0.1,0.1-0.2c0.7-0.5,1.4-0.9,2.1-1.3c-7.4,13.1-11.3,27.8-12.9,42.7
			c-0.2,1.7-0.3,3.3-0.5,5c-0.9-4.7-1.4-9.5-1.4-14.3c0-4.7,0.5-9.4,1.5-14c0.9-4.4,2.4-8.7,5-12.4
			C35.1,108.9,36.4,107.7,37.7,106.5z M157.9,93.4c-1-0.9-2.1-1.8-3.2-2.7c-6.5-5.4-13.6-10-21.4-13c-3.3-1.6-6.8-2.9-10.3-4
			c-2.9-0.9-5.9-1.7-8.9-2.3c-1.7-0.7-3.5-1.3-5.2-1.7c0,0-0.1,0-0.1,0c2.8-1.5,6.2-2,9.1-2.1c4.5-0.2,9,0.5,13.2,2
			c8.7,3,15.8,9.1,21.5,16.1c1.8,2.2,3.5,4.6,5.1,7C157.7,92.8,157.8,93.1,157.9,93.4z M103.4,68.1c-0.1,0-0.2,0-0.3-0.1
			c0.2,0,0.3-0.1,0.5-0.1C103.5,68,103.5,68.1,103.4,68.1z M48,102c0.3-0.5,0.6-0.9,0.9-1.4C48.6,101.1,48.3,101.6,48,102z
			 M50.6,91.2c0-0.1-0.1-0.1-0.1-0.2c0.2-0.1,0.4-0.2,0.6-0.3C50.9,90.9,50.7,91.1,50.6,91.2z M37,101.8c-0.1,0.1-0.2,0.2-0.4,0.3
			c0.2-0.2,0.4-0.4,0.5-0.6C37.1,101.6,37.1,101.7,37,101.8z M172.2,120.9c0.1-0.2,0.2-0.5,0.2-0.8c0-0.1,0-0.1,0-0.2
			c0.1,0.2,0.3,0.4,0.5,0.6C172.8,120.6,172.5,120.7,172.2,120.9z"/>
		<path class="st0" d="M322.6,115.5c0,0.2,0,0.3,0.1,0.5c-0.2,0.9,0.2,1.8,1,2.2c1.4,0.7,2.8,1.4,4.2,2.1c1.7,1.4,3.4,2.7,5.2,4.1
			c0.7,1.1,1.4,2.2,2.1,3.4c0.6,1,1.9,1.3,2.9,0.8c0.3-0.2,0.5-0.4,0.7-0.7c1,0.9,2,1.8,3,2.7c1.9,1.9,4.9-1.1,3-3
			c-0.2-0.2-0.4-0.4-0.7-0.6c0.5-0.5,0.7-1.3,0.6-2.1c-0.3-2.2-0.5-4.5-0.6-6.7c0.1-1.2,0.2-2.4,0.4-3.6c0.2-0.3,0.3-0.5,0.5-0.8
			c1.5-3.2,3.1-6.4,4.9-9.4c0.4-0.1,0.7-0.3,1.1-0.5c2-1.1,4.1-2.3,6.1-3.4c0.2,0.2,0.5,0.4,0.9,0.5c5,0.7,10,1.5,15,2.4
			c3.1,1.1,6.1,2.1,9.1,3.3c0.4,1.3,0.9,2.6,1.3,3.8c-4.1-0.4-8.2-0.8-12.3-1.1c-4.8-0.3-9.6-0.6-14.4-0.7c-2.6-0.1-2.7,3.8-0.3,4.2
			c0.1,0.7,0.6,1.3,1.5,1.5c9,2,18.4,1.5,27.6,2.8c2.4,8.2,4.4,16.6,5.8,25c0.5,2.9,0.9,5.8,1.3,8.7c-0.6,1-1.2,1.9-1.8,2.9
			c0,0,0,0.1-0.1,0.1c-0.8,0.7-1.7,1.3-2.6,1.9c-1.2,0.8-2.1,1.9-2.7,3.1c-0.1-0.1-0.2-0.2-0.3-0.2c-0.9-0.7-2.1-0.9-3,0
			c-0.6,0.6-0.8,1.7-0.4,2.5c-0.3,1,0.1,1.9,0.9,2.5c3.2,2.4,6.2,5.1,8.9,8c1,1.4,2,2.9,2.9,4.4c0.3,0.6,0.9,0.9,1.5,1
			c0.4,0.5,0.7,1,1.1,1.5c-0.3,1-0.1,2,0.9,2.6c0.4,0.3,1,0.3,1.5,0.2c0.8,0.6,2.1,0.7,2.8-0.2c3.2-4.1,6.5-8.2,9.7-12.3
			c3.1-3.9,6.2-7.7,8.9-11.9c4.5-7.2,7.7-15.1,10.5-23.1c1.1-1.3,1.8-3,2-4.8c0.1-0.5,0.1-1.1,0.2-1.6c0.4-1.2,0.8-2.4,1.1-3.6
			c0.5-1.7,0.3-3.5-0.9-4.7c-0.3-7.7-1.9-15.3-4.9-22.5c-3.6-8.6-8.4-15.9-16.9-17.1c-2.7-2.3-5.5-4.4-8.5-6.3
			c-1.4-3.5-3.5-6.5-6.1-9.2c0-0.2,0-0.3-0.1-0.4c-0.9-2.2-2.5-3.4-4.6-4.4c-0.5-0.2-0.9-0.4-1.4-0.6c0.1-0.6-0.1-1.3-0.6-1.7
			c-3.1-2.5-6.6-4.2-10.3-5.3c-3.7-2-7.5-3.8-11.4-5.4c-1.1-0.4-2.3,0.5-2.6,1.5c-0.3,1.2,0.4,2.2,1.5,2.6c0.2,0.1,0.3,0.1,0.5,0.2
			c-6,0.6-11.9,2.9-16.7,6.9c-0.2,0.1-0.3,0.3-0.4,0.4c-0.1,0.1-0.3,0.1-0.4,0.2c-5.1,0.6-9.4,4.3-12.8,8.4
			c-4.9,3.5-8.8,8.1-12.4,12.8c-4.2,5.3-7.3,11-7.2,18c0,1.8,0.6,3.2,1.6,4.3C319.6,106.3,320.4,111.2,322.6,115.5z M391.5,108.8
			c0.9-0.7,1.3-2.1,0.3-3.1c-0.5-0.6-1.1-1.1-1.7-1.5c-0.6-1.8-1.2-3.6-1.9-5.4c4.1,2.6,8,5.2,11.9,8.1c1.1,2,2,4,2.6,6.1
			c-2.3-0.4-4.5-0.7-6.8-1c-1.2-0.2-2.4-0.3-3.7-0.5C392.1,110.5,391.8,109.7,391.5,108.8z M404.2,121.5c0,1.5-0.1,3-0.3,4.5
			c-0.1,0.4-0.1,0.9-0.1,1.3c-1.4,4.7-3.4,9.3-5.7,13.8c-0.8-7.5-2.1-15-3.9-22.4C397.6,119.5,400.9,120.4,404.2,121.5z M381,59.2
			c0.2,0.1,0.4,0.2,0.6,0.2c0.1,0.3,0.3,0.6,0.5,0.9c2.4,1.9,4.6,3.9,6.5,6.1c-8.1-4-16.8-6.8-25.8-8.3c0.3,0,0.6,0,0.9,0
			c2.1-0.1,4.2-0.3,6.2-0.4C373.6,57.5,377.6,57.4,381,59.2z M365.8,96.4c3.5-1.3,7.2-2.1,11-2c0.3,0,0.5,0,0.8,0
			c0.8,1.9,1.5,3.9,2.3,5.8c-0.7-0.1-1.5-0.3-2.2-0.4c-1.2-0.2-2.4-0.5-3.6-0.7C371.3,98.2,368.5,97.3,365.8,96.4z M412.5,161.4
			c0.8-1.3,1.6-2.5,2.3-3.8c0.1,0.2,0.2,0.3,0.3,0.5c-1,1.4-2,2.7-3,4C412.2,161.8,412.3,161.6,412.5,161.4z M396.2,69.3
			C396.2,69.3,396.2,69.3,396.2,69.3c-0.5-0.7-1-1.3-1.4-1.9c0.6,0.7,1.2,1.4,1.7,2.1C396.4,69.4,396.3,69.3,396.2,69.3z"/>
	</g>
	<g>
		<path class="st1" d="M144.7,190.5c0.1,0.6-1.8,2.1-5.7,4.3c-4,2.2-8.4,4.3-13.3,6.2c-8,7.4-14.6,15.2-19.7,23.3
			c-5.2,8.1-10.6,19.3-16.4,33.6l1.9-0.3c8.5-1.3,15.4-5.1,20.6-11.3c2.6-3.1,4.2-6.9,4.9-11.4c0.1-0.7,0.4-1.1,0.8-1.2
			c0.5-0.1,0.7,0.1,0.8,0.5c0.5,4.7-2,9.7-7.7,14.9c-5.7,5.2-12,8.3-19,9.4c-1.1,0.2-1.9,0.3-2.7,0.3c-0.2,0.6-1.5,3.4-3.6,8.5
			c-5.1,11.8-9.5,20.4-13.3,25.7c-3.8,5.3-8.9,10.4-15.3,15.1c-10.3,7.5-21.2,12.2-32.6,14c-6.6,1-12.2,0.6-16.7-1.2
			c-4.5-1.8-7-4.7-7.4-8.5c-0.2-2.1,0.3-4,1.5-5.7c1.3-1.7,2.9-2.7,5-3.1c3.3-0.5,5.2,0.6,5.5,3.5c0.4,3.4-1.2,5.4-4.9,5.9
			c-2.6,0.4-4.2-0.7-4.6-3.5c0-0.2-0.1-0.3-0.2-0.4c-0.9,0.1-1.2,1.2-0.9,3.3c0.4,3.3,2.7,5.8,7,7.5c4.3,1.6,9.4,2,15.5,1
			c12.9-2,23.6-8.2,31.9-18.5c3.3-4.1,6.3-8.8,9.2-14.2c4.6-9,9.2-18.1,13.8-27.2l1-2c-5.2-0.5-9.6-2.2-13-5
			c-3.4-2.9-5.4-6.4-5.8-10.7c-0.9-7.6,2.2-14.6,9.1-20.9c4.1-3.7,8.3-6.5,12.7-8.4c4.4-1.9,12.4-4.4,24-7.5
			c5.1-1.3,11.1-3.3,18.1-5.9c8.8-6.5,15-10.1,18.7-10.6C144.2,189.9,144.6,190.1,144.7,190.5z M123.6,201.9
			c-3.3,1.3-7.9,2.9-13.6,4.9c-9.3,3.3-16.3,6.2-21,8.7c-4.7,2.5-9,5.6-12.7,9.1c-8,7.6-11.6,14.8-10.8,21.7
			c0.8,6.7,5.7,10.6,14.9,11.7C92.8,232.6,107.2,213.9,123.6,201.9z"/>
		<path class="st1" d="M147.7,258.7c0.1,0.7-1,2.8-3.5,6.3c-3.7,5.2-7.4,8.3-11.1,9.4c-1.6,0.4-3,0.5-4.3,0.3
			c-5,10.4-10.4,16.3-16.3,17.9c-3,0.8-5.8,0.4-8.4-1.3c-2.6-1.7-4.2-4.1-4.8-7.2c-1.4-7,2.4-15.2,11.3-24.5
			c6.3-6.6,11.7-10.5,16.3-11.8c4.3-1.2,6.9,0.3,7.7,4.5c1,5.3-0.8,12.4-5.4,21.5c1.1,0.3,2.3,0.2,3.6-0.1c2.3-0.6,4.7-2.3,7.4-5
			c2.7-2.7,4.7-5.7,6.1-8.9c0.4-0.8,0.8-1.2,1-1.3C147.5,258.5,147.6,258.6,147.7,258.7z M133.6,252.9c-0.7-3.7-2.9-5-6.6-4
			c-4.6,1.3-9.4,6.8-14.5,16.5c-5.1,9.8-7,17.3-6,22.8c0.6,3.2,2.6,4.3,5.9,3.4c5.4-1.5,10.6-7.2,15.5-17.1
			c-1.7-1.1-2.8-2.4-3.1-3.9c-0.4-2.2,0.1-4.8,1.6-7.7c1.5-2.9,3.2-4.6,5.1-5.1c0.8-0.2,1.5,0.1,1.9,0.9
			C133.9,256.7,134,254.9,133.6,252.9z"/>
		<path class="st1" d="M186.9,253.8c0.1,0.5-1.8,1.8-5.6,3.9c-3.8,2.1-6.8,3.4-8.9,3.9c-2,0.5-4.1,0.8-6.4,1
			c-2.7,0.2-4.6,0.4-5.9,0.7c-2.1,0.5-4,1.4-5.7,2.8c-0.1,0.1-0.2,0.2-0.4,0.2c-0.2,0-0.4-0.1-0.4-0.2c-0.1-0.5,1.6-1.8,5.2-3.9
			c3.6-2.1,6.3-3.4,8.1-3.8c1-0.3,3.2-0.5,6.6-0.7c2.8-0.2,4.9-0.4,6.1-0.8c2.3-0.6,4.4-1.6,6.3-2.9c0.3-0.2,0.5-0.4,0.7-0.4
			C186.7,253.5,186.8,253.6,186.9,253.8z"/>
		<path class="st1" d="M384.7,136.8c0.1,0.8-0.3,1.4-1.4,1.6c-0.5,0.1-2.2,0.2-5.2,0.4c-5.5,0.3-10.1,0.9-13.7,1.8
			c-7.7,4.2-14.1,10.3-19.3,18.2c-5.1,7.9-10.5,20-16.1,36.3c-8.5,25-21.9,41.8-40.3,50.5c4.1-0.4,2.1-0.1,5.1-0.8
			c9.2-2.2,16.6-6.8,22-13.7c5.2-6.7,9.4-13.4,12.4-20.2c0.3-0.7,0.6-1.2,0.9-1.2c0.3-0.1,0.5,0,0.6,0.1c0.1,0.7-2.2,4.9-6.9,12.7
			c-4.4,7.3-8.6,12.6-12.7,15.9c-4,3.3-9.3,5.8-15.6,7.3c-3.7,0.9-2.8,0.6-8.2,0.9c-3.1,1.7-6.7,3.1-10.8,4.1
			c-2.9,0.7-4.4,0.6-4.6-0.4c-0.2-1.1,1.7-2.1,5.6-3.1c2.8-0.7,6-1.2,9.7-1.6c7.5-3.6,12.9-7.8,16.3-12.6c3.4-4.8,9.3-17.2,17.9-37
			l-29,7c-10.4,14.7-18.5,25.4-24.4,32c-13.8,15.4-27.7,24.8-41.6,28.1c-7.9,1.9-14.9,1.9-21-0.1c-6.1-2-9.5-5.4-10.3-10.3
			c-0.4-2.5,0.1-4.8,1.5-7c1.4-2.2,3.3-3.6,5.7-4.2c3.3-0.8,5.1,0.2,5.6,3.1c0.2,1.5-0.1,2.9-1,4.3c-0.9,1.3-2.2,2.2-3.7,2.6
			c-2.3,0.6-3.7-0.2-4-2.2l-0.1-1.4c0.1-0.2,0.1-0.5,0-0.8c-0.1-0.5-0.3-0.6-0.8-0.5c-0.5,0.1-0.9,0.8-1.2,2.1
			c-0.3,1.3-0.4,2.5-0.2,3.7c0.7,4.5,3.9,7.6,9.6,9.4c5.7,1.8,12.3,1.8,19.8,0c10.8-2.6,21.9-10.3,33.2-23c2.6-2.9,5.4-6.5,8.5-10.9
			c6-8.6,10.9-15.3,14.5-20.1l1.9-2.7l-14.6,3.5l0.7-1.4c4.8-1.2,9.8-2.3,14.9-3.5c12.3-18.4,24.8-32.7,37.5-42.9
			c12.7-10.2,26.8-17.2,42.1-21.1c3.5-1.5,6.7-2.6,9.9-3.4C380.7,134.6,384.4,134.8,384.7,136.8z M309.7,160.7
			c0.1,0.5-0.6,1.9-2.1,4.2c-4.1,6.5-8.3,10.3-12.7,11.4c-2.8,0.7-5.2,0.4-7.3-1s-3.3-3.5-3.8-6.5c-0.4-2.5,0.5-7,2.8-13.3
			c1.1-3,1.5-5.3,1.2-7c-0.4-2.2-2-3.8-4.9-4.7c-2.9-0.9-6.3-0.9-10.2,0.1c-11,2.8-20.6,9.3-28.8,19.5c-8.2,10.2-11.5,19.9-10,29.1
			c0.7,4.7,2.9,8.1,6.6,10.2c3.6,2.2,8,2.6,13,1.4c5.5-1.4,10.6-4.6,15.6-9.7c4.9-5.1,8.1-10.5,9.6-16.3c0.1-0.5,0.2-0.8,0.5-0.8
			c0.4-0.1,0.7,0.1,0.8,0.5c0.2,0.9-0.4,2.8-1.7,5.6c-1.3,2.8-2.7,5.3-4.2,7.3c-5.6,7.6-12.4,12.4-20.5,14.4
			c-5.5,1.4-10.2,0.9-14-1.4c-3.8-2.3-6.2-6.1-7-11.2c-1.5-9.4,2-19.4,10.5-29.9c8.5-10.5,18.5-17.2,30-20.1
			c5.1-1.3,9.2-1.1,12.5,0.5c3.2,1.6,5.2,4.5,5.8,8.5c0.5,3-0.1,6.9-1.7,11.7c-1.5,4.3-2.1,7.2-1.9,8.5c0.5,3.3,2.9,4.4,7.2,3.4
			c4.8-1.2,9.3-5.8,13.4-13.7c0.3-0.6,0.7-1,1-1.1C309.4,160.3,309.6,160.4,309.7,160.7z M360.7,141.8c-13,3.8-24.6,10.1-34.8,19.1
			c-10.2,9-21.3,22.6-33.5,40.8l28.5-6.9c4.8-11.7,11-22.7,18.8-33C347.4,151.6,354.4,144.9,360.7,141.8z"/>
		<path class="st1" d="M389.1,195.9c0.1,0.9-2.8,6.1-8.9,15.5c-5,7.7-9.1,11.9-12.4,12.7c-2.2,0.5-4.2,0.1-5.9-1.1
			c-1.7-1.2-2.7-3-3-5.3c-0.3-2-0.1-4,0.6-5.9c0.7-1.9,2.6-5.9,5.7-11.9c3.2-6.3,4.7-10.2,4.5-11.7c-0.3-1.8-1.4-2.5-3.5-2.1
			c-7.2,1.6-16.5,16.2-28,44c-2.4,0.4-3.9,0.6-4.4,0.7c-1.7,0.4-3.3,0.8-4.8,1.3l9.2-19.2c5.2-11,7.6-17.7,7.3-20.1
			c-0.2-1.4-0.9-1.9-2.1-1.6c-2.5,0.6-6.8,6.5-12.8,17.8c-0.4,0.7-0.7,1.1-0.9,1.2c-0.2,0.1-0.4,0-0.5-0.3c0-0.2,0.1-0.4,0.2-0.6
			l1.2-2c6.2-10.9,10.7-16.7,13.3-17.2c1.7-0.4,3.2,0,4.6,1.1c1.4,1.1,2.2,2.7,2.5,4.6c0.4,2.9-0.9,7.3-3.9,13.2
			c4.8-8.6,8.5-14.6,11.3-18c2.7-3.4,5.4-5.4,8.1-6c2.2-0.5,4.1-0.1,5.8,1.2c1.7,1.3,2.7,3.1,3,5.5c0.4,3-1.2,8.1-4.9,15.3
			c-3.7,7.4-5.5,11.9-5.2,13.7c0.3,1.8,1.4,2.5,3.4,2.1c4.4-1,10.9-9.8,19.6-26.5c0.2-0.5,0.4-0.8,0.6-0.8
			C388.9,195.6,389.1,195.7,389.1,195.9z"/>
		<path class="st1" d="M447.3,183.8c0.1,0.9-2.8,6.1-8.9,15.5c-5,7.7-9.1,11.9-12.4,12.7c-2.2,0.5-4.2,0.1-5.9-1.1
			c-1.7-1.2-2.7-3-3-5.3c-0.3-2-0.1-4,0.6-5.9c0.7-1.9,2.6-5.9,5.7-11.9c3.2-6.3,4.7-10.2,4.5-11.7c-0.3-1.8-1.4-2.5-3.5-2.1
			c-7.2,1.6-16.5,16.2-28,44c-2.4,0.4-3.9,0.6-4.4,0.7c-1.7,0.4-3.3,0.8-4.8,1.3l9.2-19.2c5.2-11,7.6-17.7,7.3-20.1
			c-0.2-1.4-0.9-1.9-2.1-1.6c-2.5,0.6-6.8,6.5-12.8,17.8c-0.4,0.7-0.7,1.1-0.9,1.2c-0.2,0.1-0.4,0-0.5-0.3c0-0.2,0.1-0.4,0.2-0.6
			l1.2-2c6.2-10.9,10.7-16.7,13.3-17.2c1.7-0.4,3.2,0,4.6,1.1c1.4,1.1,2.2,2.7,2.5,4.6c0.4,2.9-0.9,7.3-3.9,13.2
			c4.8-8.6,8.5-14.6,11.3-18c2.7-3.4,5.4-5.4,8.1-6c2.2-0.5,4.1-0.1,5.8,1.2s2.7,3.1,3,5.5c0.4,3-1.2,8.1-4.9,15.3
			c-3.7,7.4-5.5,11.9-5.2,13.7c0.3,1.8,1.4,2.5,3.4,2.1c4.4-1,10.9-9.8,19.6-26.5c0.2-0.5,0.4-0.8,0.6-0.8
			C447.1,183.5,447.2,183.6,447.3,183.8z"/>
		<path class="st1" d="M484.9,136.1c0.6,2.8-0.6,6.4-3.6,10.6c-1.1,1.6-2.7,3.3-4.7,5.2c-2,1.8-3.5,2.9-4.4,3.1
			c-0.3,0.1-0.5,0-0.5-0.3c0-0.2,0.1-0.4,0.5-0.7c5.1-3.1,7.4-5.7,6.9-7.7c-0.1-0.3-0.3-0.3-0.8-0.2c-2.3,0.6-3.6,0-4-1.8
			c-0.3-1.6,0.3-3.6,2-6c1.6-2.4,3.3-3.8,5.1-4.2C483.3,133.6,484.5,134.3,484.9,136.1z"/>
		<path class="st1" d="M500,157.7c0.2,1.7-2.8,5.5-9,11.4c-0.2,1.4-0.2,2.5-0.1,3.5c0.2,2.5,2,6.3,5.3,11.3c1.7,2.5,2.6,4.7,2.8,6.5
			c0.4,3.9-1.6,7.5-6,10.9c-4.4,3.4-9.7,5.5-16.1,6.2c-3.6,0.4-6.6,0-8.9-1.4c-2.3-1.4-3.6-3.5-3.9-6.3c-0.3-3.2,0.8-6.5,3.4-9.9
			c2.5-3.4,5.3-5.3,8.4-5.6c0.5-0.1,1,0,1.5,0.1l5.8-7.1c1.7-2.1,4-4.9,6.9-8.6c0.6-3.1,1.7-5.8,3.4-8.2c1.7-2.4,3.4-3.7,5.2-3.9
			C499.5,156.6,499.9,157,500,157.7z M491.4,184.4c-0.1-1.3-0.3-2.6-0.5-3.8c-0.2-1.2-0.5-3.1-0.7-5.4c-0.2-1.9-0.2-3.5-0.1-4.9
			c-2.7,3.4-6.6,8.2-11.7,14.4c1.1,0.6,1.7,1.3,1.8,2.3c0.2,2.5-2.2,4.5-7.2,6.1c-2,0.6-3.7,1.8-5.1,3.4c-1.4,1.6-2,3.2-1.8,4.8
			c0.2,1.7,1.1,3.1,2.7,4c1.6,1,3.6,1.3,5.9,1c4.5-0.5,8.5-3.1,12.1-7.8C490.2,193.9,491.8,189.2,491.4,184.4z"/>
	</g>
	<g>
		<path class="st1" d="M219.4,301.6c0.6,3.3-0.9,7.2-4.4,11.7c4.8,5.2,7.6,10.3,8.5,15.4c0.2,1.3,0,2-0.7,2.1
			c-0.5,0.1-1-0.6-1.3-2.3c-0.9-5-3.3-9.7-7.4-14.1c-5.7,7-13.9,13.9-24.7,20.6c-10.8,6.7-20.6,11.1-29.4,13.3
			c-1.2,0.3-2.3,0.5-3.3,0.6c-5.4,13-7.2,24.6-5.4,35c1.2,7.1,4.2,12.2,8.9,15.3c4.7,3.1,10.5,3.9,17.5,2.2
			c13.1-3.2,23.5-12.8,31.4-29c4.8-9.8,6.5-18.4,5.2-25.8c-0.7-3.9-2.3-6.8-4.8-8.6c-2.5-1.8-5.6-2.2-9.2-1.4
			c-5.7,1.4-11.3,6.2-16.7,14.4c-5.4,8.2-7.7,15.1-6.7,20.9c0.1,0.5,0.3,0.7,0.5,0.7c0.2-0.1,0.4-0.2,0.5-0.4c1-1.5,2.1-2.4,3.1-2.6
			c2.3-0.6,3.7,0.5,4.2,3.3c0.6,3.7-0.7,6-4,6.8c-3,0.7-4.9-0.9-5.6-4.9c-1.2-7.2,0.9-15.1,6.3-23.8c5.4-8.7,11.6-13.8,18.4-15.5
			c8.8-2.1,14.1,2.1,15.9,12.7c1.9,10.9-1.2,22.1-9.2,33.4c-8,11.3-17.8,18.4-29.5,21.2c-8.1,2-15.4,0.6-22-4
			c-6.5-4.6-10.6-11.3-12.1-20.1c-1.5-8.5-0.2-17.9,3.7-28.3c-20.5,0.8-31.9-5.4-34.2-18.5c-1.3-7.8,1.2-15.3,7.7-22.3
			c6.5-7.1,15.2-11.9,26.2-14.6c15.3-3.7,31.8-1.9,49.4,5.5c2.6-1.3,5.3-2.2,8.2-2.9C213.6,295.4,218.6,296.7,219.4,301.6z
			 M194.4,301.3c-15.4-5.5-31-6.3-46.7-2.5c-9.7,2.4-17.8,6.9-24.2,13.7c-6.4,6.8-9,13.5-7.9,20.3c2.1,12,12.7,17.5,31.9,16.5
			C156.1,328.8,171.7,312.8,194.4,301.3z M213.4,313.5c-4.5-4.7-10.1-8.5-16.8-11.4c-8.1,4.6-15.7,11.1-22.8,19.3
			c-7.1,8.2-12.5,17-16.4,26.2c9.6-2.3,19.8-6.8,30.8-13.5C199.1,327.5,207.5,320.6,213.4,313.5z M218.3,301.9
			c-0.7-4.1-4.7-5.3-12.1-3.5c-2.3,0.6-5,1.6-8,3c6.2,2.8,11.5,6.5,16,11.1C217.4,308.1,218.8,304.6,218.3,301.9z"/>
		<path class="st1" d="M263.6,353.6c0,0.4-1.4,2.6-4.3,6.4c-3.6,4.9-7.2,7.6-10.6,8c-3.9,0.4-6-1.7-6.3-6.4
			c-0.1-1.5,0.1-3.4,0.6-5.8c-3.1,3.3-5.5,6.5-7.4,9.6c-1.9,3.1-5,9.4-9.4,18.8c-2.7,0.1-4.3,0.2-4.8,0.2c-0.2,0-1.8,0.3-4.7,0.8
			l11.3-22.7c5.7-11.4,8.4-18.4,8.3-21c-0.1-1.5-0.7-2.2-1.9-2.1c-2.9,0.3-7.7,6.7-14.6,19c-0.4,0.8-0.8,1.2-1.2,1.3
			c-0.2,0-0.3-0.2-0.3-0.4c0-0.3,0.1-0.5,0.3-0.7l1.3-2.2c7.2-11.9,12.3-18,15.1-18.3c4.1-0.5,6.3,2.1,6.7,7.6
			c0.2,4.1-1.5,9.8-5.3,17.1c2.5-3.5,4.9-6.4,7.1-8.7c1.7-5,3.8-9.2,6.5-12.8c2.7-3.5,5.2-5.4,7.5-5.7c1.6-0.2,2.4,0.5,2.5,1.9
			c0.2,2.6-3.2,6.6-10,12.2c-1.1,0.9-2.7,2.2-4.9,3.8l-0.9,0.9c-0.6,2.5-0.8,4.6-0.7,6.2c0.3,4.5,2,6.6,5.3,6.2
			c4-0.4,8.2-4.4,12.5-11.8c1-1.3,1.6-2,1.8-2C263.5,353.1,263.6,353.2,263.6,353.6z"/>
		<path class="st1" d="M311.7,339.9c0.2,1-2.6,6.2-8.5,15.7c-4.7,7.8-8.7,12-12.1,12.7c-2.3,0.5-4.3,0-6.1-1.3
			c-1.7-1.3-2.8-3.2-3.3-5.6c-0.5-2.5-0.2-5.4,0.9-8.6c-3.8,7.5-6.8,12.6-9.1,15.4c-2.2,2.8-4.6,4.4-7.1,4.9
			c-2.6,0.5-5.1-0.1-7.3-1.9c-2.2-1.8-3.6-4.2-4.2-7.4c-1.6-8.9,3.7-18.1,16-27.7c5.4-4.2,9.9-6.7,13.5-7.4c3.1-0.6,4.9,0.5,5.4,3.3
			c0.1,0.8,0.1,1.9,0,3.3l2.6-7.5c1.6,0,2.9-0.1,4.1-0.3c1.3-0.3,3.1-0.8,5.2-1.5l-9.5,23c-3.3,8.1-4.7,13.2-4.3,15.5
			c0.4,2.2,1.6,3.1,3.5,2.7c2-0.4,4.8-3.2,8.4-8.3c3.6-5.1,7.1-11.3,10.5-18.4c0.2-0.5,0.4-0.8,0.7-0.9
			C311.5,339.5,311.6,339.6,311.7,339.9z M288.9,332.4c-0.4-2.3-1.8-3.2-4-2.7c-4.6,0.9-9.9,6.3-15.8,16.1
			c-5.9,9.8-8.4,17.3-7.5,22.5c0.6,3,2.3,4.2,5.2,3.7c3.4-0.7,8.4-7.2,15-19.5C287.1,342.4,289.5,335.7,288.9,332.4z"/>
		<path class="st1" d="M359.5,275c0.5,4.4-2.2,10.5-8.1,18.2c-5.9,7.7-14,15.5-24.1,23.5l13.8-2l-0.6,1.2l-13.9,2l-5.2,12.9
			c-6.3,15.9-11.9,28-16.7,36.3c-4.8,8.3-10.6,15.9-17.4,22.8c-9.4,9.5-18.5,14.8-27.3,16.1c-3.9,0.6-6,0.3-6.1-0.8
			c-0.1-0.5,0.2-0.8,0.8-0.9c0.4-0.1,0.8-0.1,1,0c2,0.2,3.8,0.3,5.5,0c7.2-1,14.1-5.1,20.7-12.2c4-4.3,7.5-9.3,10.2-14.7
			c2.3-4.4,7.6-16.2,15.8-35.5l9.8-22.8l-8.6,1.2l0.5-1.2l8.7-1.2c5.5-11.8,12-22.3,19.3-31.4c7.3-9.1,13.2-14,17.7-14.6
			C357.9,271.6,359.2,272.6,359.5,275z M358.5,275c-0.2-1.6-1.2-2.3-2.9-2.1c-4.1,0.6-9.1,5.7-15,15.4c-2.9,4.9-7.2,13.8-12.8,26.8
			c8.1-7,15.3-14.6,21.7-22.9C355.9,283.9,358.9,278.1,358.5,275z"/>
		<path class="st1" d="M357.9,313.8l-0.5,1.2l-10.3,1l-15.3,30.5c-1.9,3.7-2.7,6.6-2.6,8.6c0.2,2.3,1.5,3.3,4,3.1
			c4.8-0.5,12.2-9.2,22.3-26.3c0.3-0.5,0.6-0.8,0.9-0.8c0.3,0,0.5,0.1,0.5,0.4c0,0.2-0.3,0.6-0.7,1.3l-3,4.8
			c-8.8,14.1-15.7,21.4-20.7,21.9c-2.5,0.2-4.6-0.4-6.4-2c-1.8-1.6-2.8-3.6-3-6.2c-0.2-3,0.9-6.9,3.3-11.7l11.6-22.6l-8,0.8l0.7-1.2
			l7.9-0.7l8.1-15.5c1.6,0.3,3.1,0.3,4.5,0.2c1.5-0.1,3-0.5,4.5-1l-7.9,15.5L357.9,313.8z"/>
		<path class="st1" d="M378.4,295.7c0.2,1.9-2.4,6.1-7.9,12.7c-0.1,1.5-0.1,2.8,0.1,3.9c0.4,2.8,2.3,6.9,5.7,12.5
			c1.8,2.8,2.8,5.2,3,7.3c0.6,4.3-1.1,8.3-5.1,12.1c-4,3.8-9,6.2-15,7.1c-3.4,0.5-6.3,0-8.6-1.5s-3.6-3.8-4-6.9
			c-0.5-3.6,0.4-7.2,2.7-11c2.2-3.8,4.8-5.9,7.7-6.3c0.5-0.1,1,0,1.4,0.1l5.1-7.9c1.5-2.3,3.6-5.5,6.1-9.6c0.4-3.5,1.3-6.5,2.8-9.2
			c1.4-2.6,3-4.1,4.7-4.4C377.9,294.6,378.3,294.9,378.4,295.7z M371.7,325.5c-0.2-1.4-0.4-2.8-0.7-4.2c-0.3-1.4-0.6-3.4-0.9-6
			c-0.3-2.1-0.4-3.9-0.4-5.4c-2.4,3.8-5.8,9.2-10.3,16.1c1.1,0.6,1.7,1.5,1.8,2.6c0.4,2.8-1.8,5.1-6.6,6.8c-1.9,0.7-3.5,2-4.7,3.8
			c-1.2,1.8-1.7,3.6-1.5,5.4c0.3,1.9,1.2,3.4,2.8,4.4c1.6,1.1,3.5,1.4,5.7,1.1c4.2-0.6,7.9-3.6,11.1-8.8
			C371.1,336.1,372.4,330.8,371.7,325.5z"/>
	</g>
</g>
</svg>
